# xmcd
#
# Track frame offsets: 
#        150
#        34393
#        63373
#        95999
#        115995
#        130414
#        155740
#        180142
#        205768
#        225258
#        244976
#        266845
#        278685
#
# Disc length: 4389 seconds
#
# Revision: 0
# Processed by: cddbd v1.5.2PL0 Copyright (c) Steve Scherf et al.
# Submitted via: ExactAudioCopy v1.0b1
#
DISCID=ba11230d
DTITLE=Various Artist - Piekarskie wieczory bluesowe vol. 3
DYEAR=2008
DGENRE=Blues
TTITLE0=Krzak and Krzysztof Ścierański - Blues E-dur
TTITLE1=Muariolanza - Septymon
TTITLE2=Carrantuohill - Dolmen
TTITLE3=Gorczyca Fusion Group - Don't Be Grove
TTITLE4=Lester Kidson - Jazz Cafe on White Avenue
TTITLE5=Funk De Nite - Body Music
TTITLE6=Tony Royster Junior - What Time Is It
TTITLE7=TU Band - Fandango
TTITLE8=Patsy Gamble - Hideaway
TTITLE9=Christoph Titz - Magic
TTITLE10=Bruce Feiner - You Have Changed
TTITLE11=Rene Trossman - All Your Love
TTITLE12=Livin' Blues Xperience - Black Night
EXTD=
EXTT0=
EXTT1=
EXTT2=
EXTT3=
EXTT4=
EXTT5=
EXTT6=
EXTT7=
EXTT8=
EXTT9=
EXTT10=
EXTT11=
EXTT12=
PLAYORDER=
